<?xml version="1.0" encoding="UTF-8"?><svg id="a" xmlns="http://www.w3.org/2000/svg" viewBox="0 0 107.82 52.82"><defs><style>.b{fill:#e6c942;}.c{fill:#caa7c9;}.d{fill:#df7249;}</style></defs><path class="c" d="M30.11,21.31c0-1.63-.78-3.14-2.05-4.1,.34-1.2,.51-2.43,.51-3.69C28.58,6.07,22.51,0,15.06,0S1.54,6.07,1.54,13.52c0,1.26,.17,2.5,.51,3.69-1.26,.95-2.05,2.47-2.05,4.1,0,2.27,1.49,4.18,3.54,4.85l9.99,25.6c.25,.64,.85,1.05,1.53,1.05s1.29-.41,1.53-1.05l9.99-25.6c2.05-.68,3.53-2.58,3.53-4.85Zm-15.06,26.06L6.89,26.44H23.22l-8.17,20.93Zm9.93-23.95H5.13c-1.16,0-2.11-.94-2.11-2.11,0-.88,.55-1.67,1.38-1.98l1.45-.54-.57-1.44c-.48-1.22-.72-2.51-.72-3.84C4.56,7.73,9.27,3.03,15.06,3.03s10.5,4.71,10.5,10.5c0,1.33-.24,2.62-.72,3.84l-.57,1.44,1.45,.54c.82,.3,1.38,1.1,1.38,1.98,0,1.16-.94,2.11-2.11,2.11Z"/><path class="d" d="M68.97,21.31c0-1.63-.78-3.14-2.05-4.1,.34-1.2,.51-2.43,.51-3.69,0-7.46-6.07-13.52-13.52-13.52s-13.52,6.07-13.52,13.52c0,1.26,.17,2.5,.51,3.69-1.26,.95-2.05,2.47-2.05,4.1,0,2.27,1.49,4.18,3.54,4.85l9.99,25.6c.25,.64,.85,1.05,1.53,1.05s1.29-.41,1.53-1.05l9.99-25.6c2.05-.68,3.53-2.58,3.53-4.85Zm-15.06,26.06l-8.17-20.93h16.33l-8.17,20.93Zm9.93-23.95h-19.85c-1.16,0-2.11-.94-2.11-2.11,0-.88,.55-1.67,1.38-1.98l1.45-.54-.57-1.44c-.48-1.22-.72-2.51-.72-3.84,0-5.79,4.71-10.5,10.5-10.5s10.5,4.71,10.5,10.5c0,1.33-.24,2.62-.72,3.84l-.57,1.44,1.45,.54c.82,.3,1.38,1.1,1.38,1.98,0,1.16-.94,2.11-2.11,2.11Z"/><path class="b" d="M107.82,21.31c0-1.63-.78-3.14-2.05-4.1,.34-1.2,.51-2.43,.51-3.69,0-7.46-6.07-13.52-13.52-13.52s-13.52,6.07-13.52,13.52c0,1.26,.17,2.5,.51,3.69-1.26,.95-2.05,2.47-2.05,4.1,0,2.27,1.49,4.18,3.54,4.85l9.99,25.6c.25,.64,.85,1.05,1.53,1.05s1.29-.41,1.53-1.05l9.99-25.6c2.05-.68,3.53-2.58,3.53-4.85Zm-15.06,26.06l-8.17-20.93h16.33l-8.17,20.93Zm9.93-23.95h-19.85c-1.16,0-2.11-.94-2.11-2.11,0-.88,.55-1.67,1.38-1.98l1.45-.54-.57-1.44c-.48-1.22-.72-2.51-.72-3.84,0-5.79,4.71-10.5,10.5-10.5s10.5,4.71,10.5,10.5c0,1.33-.24,2.62-.72,3.84l-.57,1.44,1.45,.54c.82,.3,1.38,1.1,1.38,1.98,0,1.16-.94,2.11-2.11,2.11Z"/></svg>